<svg preserveAspectRatio="none" width="100%" height="100%" overflow="visible" style="display: block;" viewBox="0 0 19.9977 19.9977" fill="none" xmlns="http://www.w3.org/2000/svg">
<g id="Icon" clip-path="url(#clip0_0_10)">
<path id="Vector" d="M9.99883 18.3312C14.6007 18.3312 18.3312 14.6007 18.3312 9.99883C18.3312 5.39699 14.6007 1.66647 9.99883 1.66647C5.39699 1.66647 1.66647 5.39699 1.66647 9.99883C1.66647 14.6007 5.39699 18.3312 9.99883 18.3312Z" stroke="var(--stroke-0, #FB2C36)" stroke-width="1.66647" stroke-linecap="round" stroke-linejoin="round"/>
<path id="Vector_2" d="M9.99883 13.3318C11.8396 13.3318 13.3318 11.8396 13.3318 9.99883C13.3318 8.1581 11.8396 6.66589 9.99883 6.66589C8.1581 6.66589 6.66589 8.1581 6.66589 9.99883C6.66589 11.8396 8.1581 13.3318 9.99883 13.3318Z" stroke="var(--stroke-0, #FB2C36)" stroke-width="1.66647" stroke-linecap="round" stroke-linejoin="round"/>
<path id="Vector_3" d="M17.6396 6.66589H9.99883" stroke="var(--stroke-0, #FB2C36)" stroke-width="1.66647" stroke-linecap="round" stroke-linejoin="round"/>
<path id="Vector_4" d="M3.29128 5.04941L7.11583 11.6653" stroke="var(--stroke-0, #FB2C36)" stroke-width="1.66647" stroke-linecap="round" stroke-linejoin="round"/>
<path id="Vector_5" d="M9.06561 18.2812L12.8818 11.6653" stroke="var(--stroke-0, #FB2C36)" stroke-width="1.66647" stroke-linecap="round" stroke-linejoin="round"/>
</g>
<defs>
<clipPath id="clip0_0_10">
<rect width="19.9977" height="19.9977" fill="white"/>
</clipPath>
</defs>
</svg>
